<svg width="198" height="59" viewBox="0 0 198 59" fill="none" xmlns="http://www.w3.org/2000/svg">
<path d="M7.44727 50.2119H5.54785V49.4453H7.44727C7.8151 49.4453 8.11296 49.3867 8.34082 49.2695C8.56868 49.1523 8.7347 48.9896 8.83887 48.7812C8.94629 48.5729 9 48.3353 9 48.0684C9 47.8242 8.94629 47.5947 8.83887 47.3799C8.7347 47.165 8.56868 46.9925 8.34082 46.8623C8.11296 46.7288 7.8151 46.6621 7.44727 46.6621H5.76758V53H4.8252V45.8906H7.44727C7.98438 45.8906 8.43848 45.9834 8.80957 46.1689C9.18066 46.3545 9.46224 46.6117 9.6543 46.9404C9.84635 47.266 9.94238 47.6387 9.94238 48.0586C9.94238 48.5143 9.84635 48.9033 9.6543 49.2256C9.46224 49.5479 9.18066 49.7936 8.80957 49.9629C8.43848 50.1289 7.98438 50.2119 7.44727 50.2119ZM12.6338 45.8906H14.9873C15.5212 45.8906 15.972 45.972 16.3398 46.1348C16.7109 46.2975 16.9925 46.5384 17.1846 46.8574C17.3799 47.1732 17.4775 47.5622 17.4775 48.0244C17.4775 48.3499 17.4108 48.6478 17.2773 48.918C17.1471 49.1849 16.9583 49.4128 16.7109 49.6016C16.4668 49.7871 16.1738 49.9255 15.832 50.0166L15.5684 50.1191H13.3564L13.3467 49.3525H15.0166C15.3551 49.3525 15.6367 49.2939 15.8613 49.1768C16.0859 49.0563 16.2552 48.8952 16.3691 48.6934C16.4831 48.4915 16.54 48.2686 16.54 48.0244C16.54 47.751 16.4863 47.5117 16.3789 47.3066C16.2715 47.1016 16.1022 46.9437 15.8711 46.833C15.6432 46.7191 15.3486 46.6621 14.9873 46.6621H13.5762V53H12.6338V45.8906ZM16.7891 53L15.0605 49.7773L16.042 49.7725L17.7949 52.9414V53H16.7891ZM25.7695 49.2207V49.6699C25.7695 50.2038 25.7028 50.6823 25.5693 51.1055C25.4359 51.5286 25.2438 51.8883 24.9932 52.1846C24.7425 52.4808 24.4414 52.707 24.0898 52.8633C23.7415 53.0195 23.3509 53.0977 22.918 53.0977C22.498 53.0977 22.1123 53.0195 21.7607 52.8633C21.4124 52.707 21.1097 52.4808 20.8525 52.1846C20.5986 51.8883 20.4017 51.5286 20.2617 51.1055C20.1217 50.6823 20.0518 50.2038 20.0518 49.6699V49.2207C20.0518 48.6868 20.1201 48.21 20.2568 47.79C20.3968 47.3669 20.5938 47.0072 20.8477 46.7109C21.1016 46.4115 21.4027 46.1836 21.751 46.0273C22.1025 45.8711 22.4883 45.793 22.9082 45.793C23.3411 45.793 23.7318 45.8711 24.0801 46.0273C24.4316 46.1836 24.7327 46.4115 24.9834 46.7109C25.2373 47.0072 25.431 47.3669 25.5645 47.79C25.7012 48.21 25.7695 48.6868 25.7695 49.2207ZM24.8369 49.6699V49.2109C24.8369 48.7878 24.793 48.4134 24.7051 48.0879C24.6204 47.7624 24.4951 47.4889 24.3291 47.2676C24.1631 47.0462 23.9596 46.8786 23.7188 46.7646C23.4811 46.6507 23.2109 46.5938 22.9082 46.5938C22.6152 46.5938 22.3499 46.6507 22.1123 46.7646C21.8779 46.8786 21.6761 47.0462 21.5068 47.2676C21.3408 47.4889 21.2122 47.7624 21.1211 48.0879C21.0299 48.4134 20.9844 48.7878 20.9844 49.2109V49.6699C20.9844 50.0964 21.0299 50.474 21.1211 50.8027C21.2122 51.1283 21.3424 51.4033 21.5117 51.6279C21.6842 51.8493 21.8877 52.0169 22.1221 52.1309C22.3597 52.2448 22.625 52.3018 22.918 52.3018C23.224 52.3018 23.4958 52.2448 23.7334 52.1309C23.971 52.0169 24.1712 51.8493 24.334 51.6279C24.5 51.4033 24.6253 51.1283 24.71 50.8027C24.7946 50.474 24.8369 50.0964 24.8369 49.6699ZM29.623 45.8906V53H28.6807V45.8906H29.623ZM32.6016 49.0889V49.8604H29.418V49.0889H32.6016ZM33.085 45.8906V46.6621H29.418V45.8906H33.085ZM40.2246 52.2334V53H36.46V52.2334H40.2246ZM36.6504 45.8906V53H35.708V45.8906H36.6504ZM39.7266 48.9473V49.7139H36.46V48.9473H39.7266ZM40.1758 45.8906V46.6621H36.46V45.8906H40.1758ZM46.6807 51.2031C46.6807 51.0371 46.6546 50.8906 46.6025 50.7637C46.5537 50.6335 46.4658 50.5163 46.3389 50.4121C46.2152 50.3079 46.0426 50.2087 45.8213 50.1143C45.6032 50.0199 45.3265 49.9238 44.9912 49.8262C44.6396 49.722 44.3223 49.6064 44.0391 49.4795C43.7559 49.3493 43.5133 49.2012 43.3115 49.0352C43.1097 48.8691 42.9551 48.6787 42.8477 48.4639C42.7402 48.249 42.6865 48.0033 42.6865 47.7266C42.6865 47.4499 42.7435 47.1943 42.8574 46.96C42.9714 46.7256 43.1341 46.5221 43.3457 46.3496C43.5605 46.1738 43.8161 46.0371 44.1123 45.9395C44.4085 45.8418 44.7389 45.793 45.1035 45.793C45.6374 45.793 46.0898 45.8955 46.4609 46.1006C46.8353 46.3024 47.1201 46.5677 47.3154 46.8965C47.5107 47.222 47.6084 47.5703 47.6084 47.9414H46.6709C46.6709 47.6745 46.6139 47.4385 46.5 47.2334C46.3861 47.0251 46.2135 46.8623 45.9824 46.7451C45.7513 46.6247 45.4583 46.5645 45.1035 46.5645C44.7682 46.5645 44.4915 46.6149 44.2734 46.7158C44.0553 46.8167 43.8926 46.9535 43.7852 47.126C43.681 47.2985 43.6289 47.4954 43.6289 47.7168C43.6289 47.8665 43.6598 48.0033 43.7217 48.127C43.7868 48.2474 43.8861 48.3597 44.0195 48.4639C44.1562 48.568 44.3288 48.6641 44.5371 48.752C44.7487 48.8398 45.001 48.9245 45.2939 49.0059C45.6976 49.1198 46.0459 49.2467 46.3389 49.3867C46.6318 49.5267 46.8727 49.6846 47.0615 49.8604C47.2536 50.0329 47.3952 50.2298 47.4863 50.4512C47.5807 50.6693 47.6279 50.9167 47.6279 51.1934C47.6279 51.4831 47.5693 51.7451 47.4521 51.9795C47.335 52.2139 47.1673 52.4141 46.9492 52.5801C46.7311 52.7461 46.4691 52.8747 46.1631 52.9658C45.8604 53.0537 45.5218 53.0977 45.1475 53.0977C44.8187 53.0977 44.4948 53.0521 44.1758 52.9609C43.86 52.8698 43.5719 52.7331 43.3115 52.5508C43.0544 52.3685 42.8477 52.1439 42.6914 51.877C42.5384 51.6068 42.4619 51.2943 42.4619 50.9395H43.3994C43.3994 51.1836 43.4466 51.3936 43.541 51.5693C43.6354 51.7419 43.764 51.8851 43.9268 51.999C44.0928 52.113 44.2799 52.1976 44.4883 52.2529C44.6999 52.305 44.9196 52.3311 45.1475 52.3311C45.4762 52.3311 45.7546 52.2855 45.9824 52.1943C46.2103 52.1032 46.3828 51.973 46.5 51.8037C46.6204 51.6344 46.6807 51.4342 46.6807 51.2031ZM54.1182 51.2031C54.1182 51.0371 54.0921 50.8906 54.04 50.7637C53.9912 50.6335 53.9033 50.5163 53.7764 50.4121C53.6527 50.3079 53.4801 50.2087 53.2588 50.1143C53.0407 50.0199 52.764 49.9238 52.4287 49.8262C52.0771 49.722 51.7598 49.6064 51.4766 49.4795C51.1934 49.3493 50.9508 49.2012 50.749 49.0352C50.5472 48.8691 50.3926 48.6787 50.2852 48.4639C50.1777 48.249 50.124 48.0033 50.124 47.7266C50.124 47.4499 50.181 47.1943 50.2949 46.96C50.4089 46.7256 50.5716 46.5221 50.7832 46.3496C50.998 46.1738 51.2536 46.0371 51.5498 45.9395C51.846 45.8418 52.1764 45.793 52.541 45.793C53.0749 45.793 53.5273 45.8955 53.8984 46.1006C54.2728 46.3024 54.5576 46.5677 54.7529 46.8965C54.9482 47.222 55.0459 47.5703 55.0459 47.9414H54.1084C54.1084 47.6745 54.0514 47.4385 53.9375 47.2334C53.8236 47.0251 53.651 46.8623 53.4199 46.7451C53.1888 46.6247 52.8958 46.5645 52.541 46.5645C52.2057 46.5645 51.929 46.6149 51.7109 46.7158C51.4928 46.8167 51.3301 46.9535 51.2227 47.126C51.1185 47.2985 51.0664 47.4954 51.0664 47.7168C51.0664 47.8665 51.0973 48.0033 51.1592 48.127C51.2243 48.2474 51.3236 48.3597 51.457 48.4639C51.5938 48.568 51.7663 48.6641 51.9746 48.752C52.1862 48.8398 52.4385 48.9245 52.7314 49.0059C53.1351 49.1198 53.4834 49.2467 53.7764 49.3867C54.0693 49.5267 54.3102 49.6846 54.499 49.8604C54.6911 50.0329 54.8327 50.2298 54.9238 50.4512C55.0182 50.6693 55.0654 50.9167 55.0654 51.1934C55.0654 51.4831 55.0068 51.7451 54.8896 51.9795C54.7725 52.2139 54.6048 52.4141 54.3867 52.5801C54.1686 52.7461 53.9066 52.8747 53.6006 52.9658C53.2979 53.0537 52.9593 53.0977 52.585 53.0977C52.2562 53.0977 51.9323 53.0521 51.6133 52.9609C51.2975 52.8698 51.0094 52.7331 50.749 52.5508C50.4919 52.3685 50.2852 52.1439 50.1289 51.877C49.9759 51.6068 49.8994 51.2943 49.8994 50.9395H50.8369C50.8369 51.1836 50.8841 51.3936 50.9785 51.5693C51.0729 51.7419 51.2015 51.8851 51.3643 51.999C51.5303 52.113 51.7174 52.1976 51.9258 52.2529C52.1374 52.305 52.3571 52.3311 52.585 52.3311C52.9137 52.3311 53.1921 52.2855 53.4199 52.1943C53.6478 52.1032 53.8203 51.973 53.9375 51.8037C54.0579 51.6344 54.1182 51.4342 54.1182 51.2031ZM58.7773 45.8906V53H57.835V45.8906H58.7773ZM67.4648 49.2207V49.6699C67.4648 50.2038 67.3981 50.6823 67.2646 51.1055C67.1312 51.5286 66.9391 51.8883 66.6885 52.1846C66.4378 52.4808 66.1367 52.707 65.7852 52.8633C65.4368 53.0195 65.0462 53.0977 64.6133 53.0977C64.1934 53.0977 63.8076 53.0195 63.4561 52.8633C63.1077 52.707 62.805 52.4808 62.5479 52.1846C62.2939 51.8883 62.097 51.5286 61.957 51.1055C61.8171 50.6823 61.7471 50.2038 61.7471 49.6699V49.2207C61.7471 48.6868 61.8154 48.21 61.9521 47.79C62.0921 47.3669 62.2891 47.0072 62.543 46.7109C62.7969 46.4115 63.098 46.1836 63.4463 46.0273C63.7979 45.8711 64.1836 45.793 64.6035 45.793C65.0365 45.793 65.4271 45.8711 65.7754 46.0273C66.127 46.1836 66.4281 46.4115 66.6787 46.7109C66.9326 47.0072 67.1263 47.3669 67.2598 47.79C67.3965 48.21 67.4648 48.6868 67.4648 49.2207ZM66.5322 49.6699V49.2109C66.5322 48.7878 66.4883 48.4134 66.4004 48.0879C66.3158 47.7624 66.1904 47.4889 66.0244 47.2676C65.8584 47.0462 65.6549 46.8786 65.4141 46.7646C65.1764 46.6507 64.9062 46.5938 64.6035 46.5938C64.3105 46.5938 64.0452 46.6507 63.8076 46.7646C63.5732 46.8786 63.3714 47.0462 63.2021 47.2676C63.0361 47.4889 62.9076 47.7624 62.8164 48.0879C62.7253 48.4134 62.6797 48.7878 62.6797 49.2109V49.6699C62.6797 50.0964 62.7253 50.474 62.8164 50.8027C62.9076 51.1283 63.0378 51.4033 63.207 51.6279C63.3796 51.8493 63.583 52.0169 63.8174 52.1309C64.055 52.2448 64.3203 52.3018 64.6133 52.3018C64.9193 52.3018 65.1911 52.2448 65.4287 52.1309C65.6663 52.0169 65.8665 51.8493 66.0293 51.6279C66.1953 51.4033 66.3206 51.1283 66.4053 50.8027C66.4899 50.474 66.5322 50.0964 66.5322 49.6699ZM75.8447 45.8906V53H74.8975L71.3184 47.5166V53H70.376V45.8906H71.3184L74.9121 51.3887V45.8906H75.8447ZM81.7344 46.5205L79.3809 53H78.4189L81.1289 45.8906H81.749L81.7344 46.5205ZM83.707 53L81.3486 46.5205L81.334 45.8906H81.9541L84.6738 53H83.707ZM83.585 50.3682V51.1396H79.5908V50.3682H83.585ZM91.4375 52.2334V53H87.8828V52.2334H91.4375ZM88.0684 45.8906V53H87.126V45.8906H88.0684ZM102.289 50.7393H103.227C103.178 51.1885 103.049 51.5905 102.841 51.9453C102.632 52.3001 102.338 52.5817 101.957 52.79C101.576 52.9951 101.101 53.0977 100.531 53.0977C100.115 53.0977 99.7354 53.0195 99.3936 52.8633C99.055 52.707 98.7637 52.4857 98.5195 52.1992C98.2754 51.9095 98.0866 51.5628 97.9531 51.1592C97.8229 50.7523 97.7578 50.2998 97.7578 49.8018V49.0938C97.7578 48.5957 97.8229 48.1449 97.9531 47.7412C98.0866 47.3343 98.277 46.986 98.5244 46.6963C98.7751 46.4066 99.0762 46.1836 99.4277 46.0273C99.7793 45.8711 100.175 45.793 100.614 45.793C101.151 45.793 101.605 45.8939 101.977 46.0957C102.348 46.2975 102.636 46.5775 102.841 46.9355C103.049 47.2904 103.178 47.7021 103.227 48.1709H102.289C102.243 47.8389 102.159 47.554 102.035 47.3164C101.911 47.0755 101.736 46.89 101.508 46.7598C101.28 46.6296 100.982 46.5645 100.614 46.5645C100.299 46.5645 100.02 46.6247 99.7793 46.7451C99.5417 46.8656 99.3415 47.0365 99.1787 47.2578C99.0192 47.4792 98.8988 47.7445 98.8174 48.0537C98.736 48.363 98.6953 48.7064 98.6953 49.084V49.8018C98.6953 50.1501 98.7311 50.4772 98.8027 50.7832C98.8776 51.0892 98.9899 51.3577 99.1396 51.5889C99.2894 51.82 99.4798 52.0023 99.7109 52.1357C99.9421 52.266 100.215 52.3311 100.531 52.3311C100.932 52.3311 101.251 52.2676 101.488 52.1406C101.726 52.0137 101.905 51.8314 102.025 51.5938C102.149 51.3561 102.237 51.0713 102.289 50.7393ZM111.484 49.2207V49.6699C111.484 50.2038 111.418 50.6823 111.284 51.1055C111.151 51.5286 110.959 51.8883 110.708 52.1846C110.457 52.4808 110.156 52.707 109.805 52.8633C109.456 53.0195 109.066 53.0977 108.633 53.0977C108.213 53.0977 107.827 53.0195 107.476 52.8633C107.127 52.707 106.825 52.4808 106.567 52.1846C106.313 51.8883 106.117 51.5286 105.977 51.1055C105.837 50.6823 105.767 50.2038 105.767 49.6699V49.2207C105.767 48.6868 105.835 48.21 105.972 47.79C106.112 47.3669 106.309 47.0072 106.562 46.7109C106.816 46.4115 107.118 46.1836 107.466 46.0273C107.817 45.8711 108.203 45.793 108.623 45.793C109.056 45.793 109.447 45.8711 109.795 46.0273C110.146 46.1836 110.448 46.4115 110.698 46.7109C110.952 47.0072 111.146 47.3669 111.279 47.79C111.416 48.21 111.484 48.6868 111.484 49.2207ZM110.552 49.6699V49.2109C110.552 48.7878 110.508 48.4134 110.42 48.0879C110.335 47.7624 110.21 47.4889 110.044 47.2676C109.878 47.0462 109.674 46.8786 109.434 46.7646C109.196 46.6507 108.926 46.5938 108.623 46.5938C108.33 46.5938 108.065 46.6507 107.827 46.7646C107.593 46.8786 107.391 47.0462 107.222 47.2676C107.056 47.4889 106.927 47.7624 106.836 48.0879C106.745 48.4134 106.699 48.7878 106.699 49.2109V49.6699C106.699 50.0964 106.745 50.474 106.836 50.8027C106.927 51.1283 107.057 51.4033 107.227 51.6279C107.399 51.8493 107.603 52.0169 107.837 52.1309C108.075 52.2448 108.34 52.3018 108.633 52.3018C108.939 52.3018 109.211 52.2448 109.448 52.1309C109.686 52.0169 109.886 51.8493 110.049 51.6279C110.215 51.4033 110.34 51.1283 110.425 50.8027C110.509 50.474 110.552 50.0964 110.552 49.6699ZM118.185 51.2031C118.185 51.0371 118.159 50.8906 118.106 50.7637C118.058 50.6335 117.97 50.5163 117.843 50.4121C117.719 50.3079 117.547 50.2087 117.325 50.1143C117.107 50.0199 116.83 49.9238 116.495 49.8262C116.144 49.722 115.826 49.6064 115.543 49.4795C115.26 49.3493 115.017 49.2012 114.815 49.0352C114.614 48.8691 114.459 48.6787 114.352 48.4639C114.244 48.249 114.19 48.0033 114.19 47.7266C114.19 47.4499 114.247 47.1943 114.361 46.96C114.475 46.7256 114.638 46.5221 114.85 46.3496C115.064 46.1738 115.32 46.0371 115.616 45.9395C115.912 45.8418 116.243 45.793 116.607 45.793C117.141 45.793 117.594 45.8955 117.965 46.1006C118.339 46.3024 118.624 46.5677 118.819 46.8965C119.015 47.222 119.112 47.5703 119.112 47.9414H118.175C118.175 47.6745 118.118 47.4385 118.004 47.2334C117.89 47.0251 117.717 46.8623 117.486 46.7451C117.255 46.6247 116.962 46.5645 116.607 46.5645C116.272 46.5645 115.995 46.6149 115.777 46.7158C115.559 46.8167 115.396 46.9535 115.289 47.126C115.185 47.2985 115.133 47.4954 115.133 47.7168C115.133 47.8665 115.164 48.0033 115.226 48.127C115.291 48.2474 115.39 48.3597 115.523 48.4639C115.66 48.568 115.833 48.6641 116.041 48.752C116.253 48.8398 116.505 48.9245 116.798 49.0059C117.201 49.1198 117.55 49.2467 117.843 49.3867C118.136 49.5267 118.377 49.6846 118.565 49.8604C118.757 50.0329 118.899 50.2298 118.99 50.4512C119.085 50.6693 119.132 50.9167 119.132 51.1934C119.132 51.4831 119.073 51.7451 118.956 51.9795C118.839 52.2139 118.671 52.4141 118.453 52.5801C118.235 52.7461 117.973 52.8747 117.667 52.9658C117.364 53.0537 117.026 53.0977 116.651 53.0977C116.323 53.0977 115.999 53.0521 115.68 52.9609C115.364 52.8698 115.076 52.7331 114.815 52.5508C114.558 52.3685 114.352 52.1439 114.195 51.877C114.042 51.6068 113.966 51.2943 113.966 50.9395H114.903C114.903 51.1836 114.951 51.3936 115.045 51.5693C115.139 51.7419 115.268 51.8851 115.431 51.999C115.597 52.113 115.784 52.1976 115.992 52.2529C116.204 52.305 116.424 52.3311 116.651 52.3311C116.98 52.3311 117.258 52.2855 117.486 52.1943C117.714 52.1032 117.887 51.973 118.004 51.8037C118.124 51.6344 118.185 51.4342 118.185 51.2031ZM122.131 45.8906H123.044L125.373 51.6865L127.697 45.8906H128.615L125.725 53H125.012L122.131 45.8906ZM121.833 45.8906H122.639L122.771 50.2266V53H121.833V45.8906ZM128.103 45.8906H128.908V53H127.971V50.2266L128.103 45.8906ZM136.58 52.2334V53H132.815V52.2334H136.58ZM133.006 45.8906V53H132.063V45.8906H133.006ZM136.082 48.9473V49.7139H132.815V48.9473H136.082ZM136.531 45.8906V46.6621H132.815V45.8906H136.531ZM141.972 45.8906V53H141.044V45.8906H141.972ZM144.257 45.8906V46.6621H138.764V45.8906H144.257ZM152.148 49.2207V49.6699C152.148 50.2038 152.082 50.6823 151.948 51.1055C151.815 51.5286 151.623 51.8883 151.372 52.1846C151.121 52.4808 150.82 52.707 150.469 52.8633C150.12 53.0195 149.73 53.0977 149.297 53.0977C148.877 53.0977 148.491 53.0195 148.14 52.8633C147.791 52.707 147.489 52.4808 147.231 52.1846C146.978 51.8883 146.781 51.5286 146.641 51.1055C146.501 50.6823 146.431 50.2038 146.431 49.6699V49.2207C146.431 48.6868 146.499 48.21 146.636 47.79C146.776 47.3669 146.973 47.0072 147.227 46.7109C147.48 46.4115 147.782 46.1836 148.13 46.0273C148.481 45.8711 148.867 45.793 149.287 45.793C149.72 45.793 150.111 45.8711 150.459 46.0273C150.811 46.1836 151.112 46.4115 151.362 46.7109C151.616 47.0072 151.81 47.3669 151.943 47.79C152.08 48.21 152.148 48.6868 152.148 49.2207ZM151.216 49.6699V49.2109C151.216 48.7878 151.172 48.4134 151.084 48.0879C150.999 47.7624 150.874 47.4889 150.708 47.2676C150.542 47.0462 150.339 46.8786 150.098 46.7646C149.86 46.6507 149.59 46.5938 149.287 46.5938C148.994 46.5938 148.729 46.6507 148.491 46.7646C148.257 46.8786 148.055 47.0462 147.886 47.2676C147.72 47.4889 147.591 47.7624 147.5 48.0879C147.409 48.4134 147.363 48.7878 147.363 49.2109V49.6699C147.363 50.0964 147.409 50.474 147.5 50.8027C147.591 51.1283 147.721 51.4033 147.891 51.6279C148.063 51.8493 148.267 52.0169 148.501 52.1309C148.739 52.2448 149.004 52.3018 149.297 52.3018C149.603 52.3018 149.875 52.2448 150.112 52.1309C150.35 52.0169 150.55 51.8493 150.713 51.6279C150.879 51.4033 151.004 51.1283 151.089 50.8027C151.174 50.474 151.216 50.0964 151.216 49.6699ZM159.371 52.2334V53H155.816V52.2334H159.371ZM156.002 45.8906V53H155.06V45.8906H156.002ZM167.102 49.2207V49.6699C167.102 50.2038 167.035 50.6823 166.901 51.1055C166.768 51.5286 166.576 51.8883 166.325 52.1846C166.075 52.4808 165.773 52.707 165.422 52.8633C165.074 53.0195 164.683 53.0977 164.25 53.0977C163.83 53.0977 163.444 53.0195 163.093 52.8633C162.744 52.707 162.442 52.4808 162.185 52.1846C161.931 51.8883 161.734 51.5286 161.594 51.1055C161.454 50.6823 161.384 50.2038 161.384 49.6699V49.2207C161.384 48.6868 161.452 48.21 161.589 47.79C161.729 47.3669 161.926 47.0072 162.18 46.7109C162.434 46.4115 162.735 46.1836 163.083 46.0273C163.435 45.8711 163.82 45.793 164.24 45.793C164.673 45.793 165.064 45.8711 165.412 46.0273C165.764 46.1836 166.065 46.4115 166.315 46.7109C166.569 47.0072 166.763 47.3669 166.896 47.79C167.033 48.21 167.102 48.6868 167.102 49.2207ZM166.169 49.6699V49.2109C166.169 48.7878 166.125 48.4134 166.037 48.0879C165.952 47.7624 165.827 47.4889 165.661 47.2676C165.495 47.0462 165.292 46.8786 165.051 46.7646C164.813 46.6507 164.543 46.5938 164.24 46.5938C163.947 46.5938 163.682 46.6507 163.444 46.7646C163.21 46.8786 163.008 47.0462 162.839 47.2676C162.673 47.4889 162.544 47.7624 162.453 48.0879C162.362 48.4134 162.316 48.7878 162.316 49.2109V49.6699C162.316 50.0964 162.362 50.474 162.453 50.8027C162.544 51.1283 162.674 51.4033 162.844 51.6279C163.016 51.8493 163.22 52.0169 163.454 52.1309C163.692 52.2448 163.957 52.3018 164.25 52.3018C164.556 52.3018 164.828 52.2448 165.065 52.1309C165.303 52.0169 165.503 51.8493 165.666 51.6279C165.832 51.4033 165.957 51.1283 166.042 50.8027C166.127 50.474 166.169 50.0964 166.169 49.6699ZM175.267 49.46V52.0625C175.179 52.1927 175.039 52.3392 174.847 52.502C174.655 52.6615 174.389 52.8014 174.051 52.9219C173.715 53.0391 173.283 53.0977 172.752 53.0977C172.319 53.0977 171.92 53.0228 171.556 52.873C171.194 52.7201 170.88 52.4987 170.613 52.209C170.35 51.916 170.145 51.5612 169.998 51.1445C169.855 50.7246 169.783 50.2493 169.783 49.7188V49.167C169.783 48.6364 169.845 48.1628 169.969 47.7461C170.096 47.3294 170.281 46.9762 170.525 46.6865C170.77 46.3936 171.069 46.1722 171.424 46.0225C171.779 45.8695 172.186 45.793 172.645 45.793C173.188 45.793 173.642 45.8874 174.007 46.0762C174.375 46.2617 174.661 46.5189 174.866 46.8477C175.075 47.1764 175.208 47.5508 175.267 47.9707H174.324C174.282 47.7135 174.197 47.4792 174.07 47.2676C173.947 47.056 173.769 46.8867 173.538 46.7598C173.307 46.6296 173.009 46.5645 172.645 46.5645C172.316 46.5645 172.031 46.6247 171.79 46.7451C171.549 46.8656 171.351 47.0381 171.194 47.2627C171.038 47.4873 170.921 47.7591 170.843 48.0781C170.768 48.3971 170.73 48.7568 170.73 49.1572V49.7188C170.73 50.1289 170.778 50.4951 170.872 50.8174C170.97 51.1396 171.108 51.4147 171.287 51.6426C171.466 51.8672 171.679 52.0381 171.927 52.1553C172.177 52.2725 172.454 52.3311 172.757 52.3311C173.092 52.3311 173.364 52.3034 173.572 52.248C173.781 52.1895 173.943 52.1211 174.061 52.043C174.178 51.9616 174.267 51.8851 174.329 51.8135V50.2217H172.684V49.46H175.267ZM179.34 45.8906V53H178.397V45.8906H179.34ZM186.343 51.2031C186.343 51.0371 186.317 50.8906 186.265 50.7637C186.216 50.6335 186.128 50.5163 186.001 50.4121C185.877 50.3079 185.705 50.2087 185.483 50.1143C185.265 50.0199 184.989 49.9238 184.653 49.8262C184.302 49.722 183.984 49.6064 183.701 49.4795C183.418 49.3493 183.175 49.2012 182.974 49.0352C182.772 48.8691 182.617 48.6787 182.51 48.4639C182.402 48.249 182.349 48.0033 182.349 47.7266C182.349 47.4499 182.406 47.1943 182.52 46.96C182.633 46.7256 182.796 46.5221 183.008 46.3496C183.223 46.1738 183.478 46.0371 183.774 45.9395C184.071 45.8418 184.401 45.793 184.766 45.793C185.299 45.793 185.752 45.8955 186.123 46.1006C186.497 46.3024 186.782 46.5677 186.978 46.8965C187.173 47.222 187.271 47.5703 187.271 47.9414H186.333C186.333 47.6745 186.276 47.4385 186.162 47.2334C186.048 47.0251 185.876 46.8623 185.645 46.7451C185.413 46.6247 185.12 46.5645 184.766 46.5645C184.43 46.5645 184.154 46.6149 183.936 46.7158C183.717 46.8167 183.555 46.9535 183.447 47.126C183.343 47.2985 183.291 47.4954 183.291 47.7168C183.291 47.8665 183.322 48.0033 183.384 48.127C183.449 48.2474 183.548 48.3597 183.682 48.4639C183.818 48.568 183.991 48.6641 184.199 48.752C184.411 48.8398 184.663 48.9245 184.956 49.0059C185.36 49.1198 185.708 49.2467 186.001 49.3867C186.294 49.5267 186.535 49.6846 186.724 49.8604C186.916 50.0329 187.057 50.2298 187.148 50.4512C187.243 50.6693 187.29 50.9167 187.29 51.1934C187.29 51.4831 187.231 51.7451 187.114 51.9795C186.997 52.2139 186.829 52.4141 186.611 52.5801C186.393 52.7461 186.131 52.8747 185.825 52.9658C185.522 53.0537 185.184 53.0977 184.81 53.0977C184.481 53.0977 184.157 53.0521 183.838 52.9609C183.522 52.8698 183.234 52.7331 182.974 52.5508C182.716 52.3685 182.51 52.1439 182.354 51.877C182.201 51.6068 182.124 51.2943 182.124 50.9395H183.062C183.062 51.1836 183.109 51.3936 183.203 51.5693C183.298 51.7419 183.426 51.8851 183.589 51.999C183.755 52.113 183.942 52.1976 184.15 52.2529C184.362 52.305 184.582 52.3311 184.81 52.3311C185.138 52.3311 185.417 52.2855 185.645 52.1943C185.872 52.1032 186.045 51.973 186.162 51.8037C186.283 51.6344 186.343 51.4342 186.343 51.2031ZM192.618 45.8906V53H191.69V45.8906H192.618ZM194.903 45.8906V46.6621H189.41V45.8906H194.903Z" fill="#757575"/>
<path d="M5.696 23.816V18.184C5.696 14.2587 5.67467 11.9547 5.632 11.272C5.58933 10.696 5.472 10.28 5.28 10.024C5.10933 9.74667 4.768 9.55467 4.256 9.448C4 9.384 3.69067 9.352 3.328 9.352C3.05067 9.352 2.912 9.288 2.912 9.16C2.912 8.98933 3.08267 8.904 3.424 8.904C3.85067 8.904 4.352 8.91467 4.928 8.936C5.504 8.936 5.99467 8.94667 6.4 8.968C6.80533 8.98933 7.01867 9 7.04 9C7.232 9 7.72267 8.98933 8.512 8.968C9.30133 8.92533 9.97333 8.904 10.528 8.904C11.7653 8.904 12.832 9.07467 13.728 9.416C14.624 9.75733 15.2853 10.1947 15.712 10.728C16.1387 11.2613 16.448 11.7733 16.64 12.264C16.832 12.7547 16.928 13.2347 16.928 13.704C16.928 14.5147 16.7573 15.304 16.416 16.072C16.096 16.8187 15.7653 17.3947 15.424 17.8C15.0827 18.2053 14.5813 18.76 13.92 19.464C15.328 19.912 16.5973 20.7227 17.728 21.896C18.88 23.0693 19.456 24.5093 19.456 26.216C19.456 28.0933 18.7413 29.7253 17.312 31.112C15.8827 32.4987 13.8773 33.192 11.296 33.192C11.1893 33.192 11.008 33.1813 10.752 33.16C10.5173 33.16 10.2293 33.1493 9.888 33.128C9.54667 33.1067 9.248 33.096 8.992 33.096C8.07467 33.032 7.424 33 7.04 33C6.69867 33 6.18667 33.0107 5.504 33.032C4.82133 33.0747 4.288 33.096 3.904 33.096C3.56267 33.096 3.392 33.0213 3.392 32.872C3.392 32.7227 3.552 32.648 3.872 32.648C4.10667 32.648 4.36267 32.616 4.64 32.552C5.088 32.4667 5.38667 31.8693 5.536 30.76C5.64267 29.864 5.696 27.5493 5.696 23.816ZM8.256 10.312V18.888C8.256 19.0587 8.33067 19.176 8.48 19.24C8.992 19.3253 9.64267 19.368 10.432 19.368C11.3707 19.368 12.0107 19.3253 12.352 19.24C12.6933 19.1333 13.024 18.8987 13.344 18.536C14.112 17.6613 14.496 16.584 14.496 15.304C14.496 13.8107 14.1333 12.52 13.408 11.432C12.704 10.344 11.6267 9.8 10.176 9.8C9.57867 9.8 9.06667 9.85333 8.64 9.96C8.384 10.024 8.256 10.1413 8.256 10.312ZM8.256 20.456V22.28C8.256 26.568 8.26667 28.872 8.288 29.192C8.33067 29.832 8.36267 30.2693 8.384 30.504C8.42667 30.7173 8.52267 30.9307 8.672 31.144C8.82133 31.3573 9.056 31.5387 9.376 31.688C10.0373 32.008 10.976 32.168 12.192 32.168C12.6827 32.168 13.1627 32.104 13.632 31.976C14.1227 31.8267 14.6027 31.592 15.072 31.272C15.5627 30.952 15.9573 30.4827 16.256 29.864C16.5547 29.224 16.704 28.4773 16.704 27.624C16.704 26.472 16.4587 25.3093 15.968 24.136C15.4987 22.9627 14.7093 21.992 13.6 21.224C12.8747 20.7333 11.9893 20.424 10.944 20.296C10.6667 20.2533 9.83467 20.232 8.448 20.232C8.32 20.232 8.256 20.3067 8.256 20.456ZM26.4913 25.192V20.392C26.4913 17.0853 26.4699 15.144 26.4273 14.568C26.3846 14.0987 26.2779 13.7467 26.1073 13.512C25.9579 13.2773 25.6593 13.1173 25.2113 13.032C24.9553 12.9893 24.6993 12.968 24.4433 12.968C24.1659 12.968 24.0273 12.904 24.0273 12.776C24.0273 12.6053 24.1873 12.52 24.5073 12.52C24.6993 12.52 25.1366 12.5307 25.8193 12.552C26.5019 12.5733 27.1633 12.5947 27.8033 12.616C31.7073 12.616 33.8726 12.6053 34.2993 12.584C34.9393 12.5627 35.3553 12.5093 35.5473 12.424C35.7393 12.36 35.8566 12.328 35.8993 12.328C35.9846 12.328 36.0273 12.4027 36.0273 12.552C36.0273 12.5947 35.9846 12.776 35.8993 13.096C35.8353 13.3947 35.7926 13.6933 35.7713 13.992C35.7073 14.9093 35.6753 15.464 35.6753 15.656C35.6753 15.976 35.6006 16.136 35.4513 16.136C35.3019 16.136 35.2273 16.0187 35.2273 15.784C35.2059 15.3787 35.1313 15.0373 35.0033 14.76C34.8966 14.4187 34.7153 14.184 34.4593 14.056C34.2033 13.928 33.6913 13.8427 32.9233 13.8C32.3686 13.7573 31.1526 13.736 29.2753 13.736C29.1686 13.736 29.1153 13.8213 29.1153 13.992V21.256C29.1153 21.4693 29.1793 21.576 29.3073 21.576C31.5046 21.576 32.9446 21.544 33.6273 21.48C34.3953 21.4373 34.8859 21.2773 35.0993 21C35.2059 20.8293 35.3233 20.744 35.4513 20.744C35.5366 20.744 35.5793 20.808 35.5793 20.936C35.5793 20.9787 35.5686 21.0747 35.5473 21.224C35.5259 21.3733 35.4939 21.5867 35.4513 21.864C35.4086 22.12 35.3766 22.376 35.3553 22.632C35.3126 22.9947 35.2806 23.4107 35.2593 23.88C35.2379 24.328 35.2273 24.5627 35.2273 24.584C35.2059 24.8187 35.1313 24.936 35.0033 24.936C34.8753 24.936 34.8113 24.7973 34.8113 24.52C34.8113 24.264 34.7793 24.008 34.7153 23.752C34.5446 23.176 34.0326 22.856 33.1793 22.792C32.1979 22.7067 30.9179 22.664 29.3393 22.664C29.1899 22.664 29.1153 22.7387 29.1153 22.888V25.224C29.1153 25.416 29.1153 25.8747 29.1153 26.6C29.1153 27.3253 29.1153 27.9653 29.1153 28.52C29.1153 29.0533 29.1153 29.4053 29.1153 29.576C29.1579 30.216 29.2326 30.696 29.3393 31.016C29.4673 31.3147 29.6913 31.528 30.0113 31.656C30.4166 31.848 31.1953 31.944 32.3473 31.944C33.5206 31.944 34.3313 31.88 34.7793 31.752C35.2273 31.624 35.5366 31.4107 35.7073 31.112C35.8993 30.792 36.0699 30.3013 36.2193 29.64C36.2833 29.3413 36.3793 29.192 36.5073 29.192C36.6353 29.192 36.6993 29.352 36.6993 29.672C36.6993 30.2053 36.5819 31.1333 36.3473 32.456C36.2833 32.776 36.1659 32.968 35.9953 33.032C35.8246 33.1173 35.4726 33.16 34.9393 33.16C34.1499 33.16 33.3393 33.1493 32.5073 33.128C31.6753 33.1067 31.1099 33.096 30.8113 33.096C28.5713 33.032 27.3126 33 27.0353 33C26.8006 33 26.4486 33.0107 25.9793 33.032C25.5313 33.0747 25.1793 33.096 24.9233 33.096C24.6246 33.096 24.4753 33.0213 24.4753 32.872C24.4753 32.7227 24.5713 32.648 24.7633 32.648C24.9553 32.648 25.1686 32.616 25.4033 32.552C25.7233 32.488 25.9686 32.2853 26.1393 31.944C26.3099 31.5813 26.4059 30.9413 26.4273 30.024C26.4699 28.5733 26.4913 26.9627 26.4913 25.192ZM50.075 13.768V25.192C50.075 28.1573 50.1283 30.1307 50.235 31.112C50.2777 31.432 50.3097 31.6667 50.331 31.816C50.3737 31.944 50.459 32.0827 50.587 32.232C50.7363 32.36 50.939 32.456 51.195 32.52C51.5363 32.6053 51.9523 32.648 52.443 32.648C52.699 32.648 52.827 32.712 52.827 32.84C52.827 33.0107 52.6883 33.096 52.411 33.096C51.9203 33.096 51.387 33.0853 50.811 33.064C50.235 33.064 49.755 33.0533 49.371 33.032L48.763 33C48.7417 33 48.5497 33 48.187 33C47.8243 33.0213 47.4083 33.0427 46.939 33.064C46.491 33.0853 46.1497 33.096 45.915 33.096C45.595 33.096 45.435 33.0213 45.435 32.872C45.435 32.7227 45.5523 32.648 45.787 32.648C46.0857 32.648 46.3203 32.6373 46.491 32.616C46.7897 32.5733 46.9817 32.4453 47.067 32.232C47.1737 32.0187 47.259 31.624 47.323 31.048C47.4083 30.28 47.451 28.328 47.451 25.192V13.768C45.6163 13.768 44.2723 13.7787 43.419 13.8C42.459 13.8213 41.787 13.9067 41.403 14.056C41.0403 14.2053 40.731 14.4613 40.475 14.824C40.3257 15.0587 40.1657 15.3893 39.995 15.816C39.931 15.9867 39.835 16.072 39.707 16.072C39.6003 16.072 39.547 15.976 39.547 15.784C39.5257 15.6773 39.739 14.6213 40.187 12.616C40.2723 12.2747 40.3683 12.104 40.475 12.104C40.539 12.104 40.731 12.1573 41.051 12.264C41.3923 12.3707 41.6697 12.4347 41.883 12.456C42.8217 12.5627 43.5043 12.616 43.931 12.616H54.427C55.4723 12.616 56.2403 12.5627 56.731 12.456C57.0937 12.3707 57.2963 12.328 57.339 12.328C57.467 12.328 57.531 12.424 57.531 12.616C57.531 12.9787 57.5203 13.608 57.499 14.504C57.4777 15.4 57.467 15.8587 57.467 15.88C57.467 16.136 57.3923 16.264 57.243 16.264C57.0937 16.264 57.019 16.136 57.019 15.88C57.019 15.7947 57.0083 15.6453 56.987 15.432C56.923 14.7707 56.667 14.344 56.219 14.152C55.7923 13.9387 54.7897 13.8213 53.211 13.8C52.7843 13.8 52.219 13.8 51.515 13.8C50.8323 13.7787 50.3523 13.768 50.075 13.768ZM66.0885 21.096H77.6725C77.8005 21.096 77.8645 21.0427 77.8645 20.936V20.36C77.8645 17.0533 77.8432 15.112 77.8005 14.536C77.7578 14.0453 77.6618 13.6933 77.5125 13.48C77.3632 13.2667 77.0432 13.1173 76.5525 13.032C76.2538 12.9893 75.9872 12.968 75.7525 12.968C75.4965 12.968 75.3685 12.8933 75.3685 12.744C75.3685 12.5947 75.5178 12.52 75.8165 12.52C76.2218 12.52 76.6912 12.5307 77.2245 12.552C77.7578 12.5733 78.2058 12.5947 78.5685 12.616C78.9525 12.616 79.1552 12.616 79.1765 12.616C79.1978 12.616 79.3792 12.616 79.7205 12.616C80.0832 12.5947 80.4885 12.5733 80.9365 12.552C81.4058 12.5307 81.7792 12.52 82.0565 12.52C82.3978 12.52 82.5685 12.5947 82.5685 12.744C82.5685 12.8933 82.4512 12.968 82.2165 12.968C82.0458 12.968 81.8325 12.9893 81.5765 13.032C81.1712 13.096 80.9045 13.2453 80.7765 13.48C80.6485 13.6933 80.5632 14.056 80.5205 14.568C80.4992 15.144 80.4885 17.0853 80.4885 20.392V25.192C80.4885 28.328 80.5312 30.28 80.6165 31.048C80.7232 31.9867 81.0858 32.488 81.7045 32.552C82.1098 32.616 82.4832 32.648 82.8245 32.648C83.1018 32.648 83.2405 32.7227 83.2405 32.872C83.2405 33.0213 83.0805 33.096 82.7605 33.096C82.2912 33.096 81.7685 33.0853 81.1925 33.064C80.6165 33.064 80.1365 33.0533 79.7525 33.032C79.3685 33.0107 79.1658 33 79.1445 33C79.1232 33 78.9312 33 78.5685 33C78.2058 33.0213 77.8005 33.0427 77.3525 33.064C76.9045 33.0853 76.5525 33.096 76.2965 33.096C75.9765 33.096 75.8165 33.0107 75.8165 32.84C75.8165 32.712 75.9338 32.648 76.1685 32.648C76.4885 32.648 76.7338 32.6267 76.9045 32.584C77.3098 32.52 77.5765 32.008 77.7045 31.048C77.8112 30.28 77.8645 28.36 77.8645 25.288V22.44C77.8645 22.312 77.8005 22.248 77.6725 22.248H66.0565C65.9498 22.248 65.8965 22.312 65.8965 22.44V25.288C65.8965 28.4027 65.9498 30.344 66.0565 31.112C66.1845 32.008 66.5472 32.488 67.1445 32.552C67.5712 32.616 67.9552 32.648 68.2965 32.648C68.5525 32.648 68.6805 32.7227 68.6805 32.872C68.6805 33.0213 68.5418 33.096 68.2645 33.096C67.7738 33.096 67.2405 33.0853 66.6645 33.064C66.0885 33.064 65.5978 33.0533 65.1925 33.032C64.8085 33.0107 64.6058 33 64.5845 33C64.5632 33 64.3712 33 64.0085 33C63.6458 33.0213 63.2298 33.0427 62.7605 33.064C62.2912 33.0853 61.9392 33.096 61.7045 33.096C61.3632 33.096 61.1925 33.0213 61.1925 32.872C61.1925 32.7227 61.3098 32.648 61.5445 32.648C61.8005 32.648 62.0565 32.616 62.3125 32.552C62.7178 32.4667 62.9845 31.9867 63.1125 31.112C63.2192 30.472 63.2725 28.4987 63.2725 25.192V20.456C63.2725 17.0853 63.2512 15.112 63.2085 14.536C63.1445 13.5973 62.7392 13.0853 61.9925 13C61.6085 12.9573 61.3205 12.936 61.1285 12.936C60.8938 12.936 60.7765 12.872 60.7765 12.744C60.7765 12.5947 60.9365 12.52 61.2565 12.52C61.7898 12.52 62.4618 12.5413 63.2725 12.584C64.0832 12.6053 64.5205 12.616 64.5845 12.616C64.6058 12.616 64.7978 12.616 65.1605 12.616C65.5232 12.5947 65.9285 12.5733 66.3765 12.552C66.8458 12.5307 67.2085 12.52 67.4645 12.52C67.7845 12.52 67.9445 12.5947 67.9445 12.744C67.9445 12.872 67.8378 12.936 67.6245 12.936C67.4325 12.936 67.2192 12.9573 66.9845 13C66.6005 13.064 66.3338 13.224 66.1845 13.48C66.0565 13.7147 65.9712 14.0773 65.9285 14.568C65.9072 15.144 65.8965 17.0747 65.8965 20.36V20.936C65.8965 21.0427 65.9605 21.096 66.0885 21.096ZM104.165 18.184V23.88C104.165 26.3333 104.208 28.104 104.293 29.192C104.4 30.2587 104.592 30.9307 104.869 31.208C105.36 31.6987 106.64 31.944 108.709 31.944C109.755 31.944 110.576 31.8907 111.173 31.784C111.771 31.6773 112.24 31.4107 112.581 30.984C113.029 30.4507 113.307 29.8107 113.413 29.064C113.456 28.7867 113.552 28.648 113.701 28.648C113.829 28.648 113.893 28.808 113.893 29.128C113.893 30.1093 113.733 31.176 113.413 32.328C113.307 32.712 113.147 32.9467 112.933 33.032C112.72 33.1387 112.208 33.192 111.397 33.192C110.501 33.192 109.115 33.16 107.237 33.096C105.36 33.032 103.888 33 102.821 33C102.501 33 102 33.0107 101.317 33.032C100.635 33.0747 100.091 33.096 99.6853 33.096C99.3439 33.096 99.1733 33.0107 99.1733 32.84C99.1733 32.712 99.2586 32.648 99.4293 32.648C99.6853 32.648 100.005 32.6053 100.389 32.52C100.859 32.4347 101.168 31.848 101.317 30.76C101.424 29.864 101.477 27.5493 101.477 23.816V18.184C101.477 14.2587 101.456 11.9547 101.413 11.272C101.371 10.696 101.253 10.28 101.061 10.024C100.891 9.74667 100.549 9.55467 100.037 9.448C99.7813 9.384 99.4186 9.352 98.9493 9.352C98.7786 9.352 98.6933 9.288 98.6933 9.16C98.6933 8.98933 98.8639 8.904 99.2053 8.904C99.6319 8.904 100.133 8.91467 100.709 8.936C101.285 8.936 101.776 8.94667 102.181 8.968C102.587 8.98933 102.8 9 102.821 9C102.843 9 103.077 8.98933 103.525 8.968C103.973 8.94667 104.475 8.936 105.029 8.936C105.584 8.91467 106 8.904 106.277 8.904C106.619 8.904 106.789 8.98933 106.789 9.16C106.789 9.288 106.704 9.352 106.533 9.352C106.213 9.352 105.861 9.384 105.477 9.448C105.029 9.53333 104.72 9.71467 104.549 9.992C104.379 10.2693 104.272 10.696 104.229 11.272C104.187 11.9547 104.165 14.2587 104.165 18.184ZM120.422 20.392V24.2C120.422 26.056 120.582 27.4853 120.902 28.488C121.222 29.4907 121.712 30.28 122.374 30.856C123.483 31.8373 124.891 32.328 126.598 32.328C128.454 32.328 129.915 31.7093 130.982 30.472C132.027 29.2773 132.55 27.048 132.55 23.784V20.392C132.55 17.1067 132.528 15.176 132.486 14.6C132.464 14.2373 132.422 13.9707 132.358 13.8C132.315 13.6293 132.208 13.4693 132.038 13.32C131.867 13.1707 131.622 13.0747 131.302 13.032C131.003 12.9893 130.704 12.968 130.406 12.968C130.192 12.968 130.086 12.904 130.086 12.776C130.086 12.6053 130.235 12.52 130.534 12.52C130.939 12.52 131.387 12.5307 131.878 12.552C132.368 12.5733 132.774 12.5947 133.094 12.616C133.435 12.616 133.616 12.616 133.638 12.616C133.659 12.616 133.808 12.616 134.086 12.616C134.384 12.5947 134.726 12.5733 135.11 12.552C135.494 12.5307 135.814 12.52 136.07 12.52C136.368 12.52 136.518 12.5947 136.518 12.744C136.518 12.8933 136.411 12.968 136.198 12.968C136.027 12.968 135.835 12.9787 135.622 13C135.216 13.0427 134.939 13.192 134.79 13.448C134.662 13.6827 134.576 14.0667 134.534 14.6C134.512 15.176 134.502 17.1067 134.502 20.392V23.24C134.502 27.272 133.638 30.0347 131.91 31.528C130.395 32.808 128.443 33.448 126.054 33.448C123.451 33.448 121.456 32.808 120.07 31.528C118.491 30.056 117.702 27.6667 117.702 24.36V20.392C117.702 17.0853 117.67 15.144 117.606 14.568C117.584 14.0773 117.499 13.7147 117.35 13.48C117.2 13.2453 116.891 13.096 116.422 13.032C116.166 12.9893 115.888 12.968 115.59 12.968C115.355 12.968 115.238 12.904 115.238 12.776C115.238 12.6053 115.398 12.52 115.718 12.52C116.123 12.52 116.582 12.5307 117.094 12.552C117.627 12.5733 118.075 12.5947 118.438 12.616C118.8 12.616 119.003 12.616 119.046 12.616C119.088 12.616 119.515 12.6053 120.326 12.584C121.136 12.5413 121.712 12.52 122.054 12.52C122.352 12.52 122.502 12.5947 122.502 12.744C122.502 12.8933 122.374 12.968 122.118 12.968C121.99 12.968 121.755 12.9893 121.414 13.032C121.051 13.0747 120.806 13.2133 120.678 13.448C120.571 13.6827 120.496 14.056 120.454 14.568C120.432 15.144 120.422 17.0853 120.422 20.392ZM152.248 33.448C148.258 33.448 145.133 32.4773 142.872 30.536C140.589 28.552 139.448 25.832 139.448 22.376C139.448 21.2667 139.704 20.0293 140.216 18.664C140.728 17.2987 141.549 16.072 142.68 14.984C144.642 13.0853 147.512 12.136 151.288 12.136C152.461 12.136 153.869 12.2533 155.512 12.488C156.877 12.7013 157.816 12.8187 158.328 12.84C158.52 12.84 158.616 12.9467 158.616 13.16C158.616 13.224 158.594 13.4053 158.552 13.704C158.509 14.0027 158.477 14.344 158.456 14.728C158.456 15.0053 158.445 15.5387 158.424 16.328C158.424 17.096 158.413 17.544 158.392 17.672C158.37 18.0773 158.285 18.28 158.136 18.28C157.965 18.28 157.88 18.0773 157.88 17.672C157.88 17.1813 157.762 16.6693 157.528 16.136C157.314 15.6027 157.016 15.1867 156.632 14.888C156.12 14.44 155.341 14.056 154.296 13.736C153.25 13.416 152.141 13.256 150.968 13.256C148.237 13.256 146.189 13.8747 144.824 15.112C143.842 16.008 143.17 17.0107 142.808 18.12C142.445 19.2293 142.264 20.5627 142.264 22.12C142.264 24.808 143.224 27.144 145.144 29.128C147.085 31.112 149.442 32.104 152.216 32.104C154.584 32.104 156.216 31.6667 157.112 30.792C157.645 30.2373 157.997 29.4693 158.168 28.488C158.232 28.168 158.349 28.008 158.52 28.008C158.626 28.008 158.68 28.1573 158.68 28.456C158.68 28.6053 158.594 29.16 158.424 30.12C158.274 31.0587 158.146 31.688 158.04 32.008C157.954 32.264 157.869 32.4347 157.784 32.52C157.698 32.6053 157.538 32.7013 157.304 32.808C156.301 33.2347 154.616 33.448 152.248 33.448ZM173.942 25.288H168.118C167.969 25.288 167.862 25.3733 167.798 25.544L166.39 29.544C166.027 30.568 165.846 31.3253 165.846 31.816C165.846 32.3707 166.198 32.648 166.902 32.648H167.126C167.382 32.648 167.51 32.7227 167.51 32.872C167.51 33.0213 167.35 33.096 167.03 33.096C166.774 33.096 166.305 33.0747 165.622 33.032C164.961 33.0107 164.587 33 164.502 33C164.481 33 164.097 33.0107 163.35 33.032C162.603 33.0747 161.963 33.096 161.43 33.096C161.089 33.096 160.918 33.0213 160.918 32.872C160.918 32.7227 161.046 32.648 161.302 32.648C161.601 32.648 161.814 32.6373 161.942 32.616C162.561 32.552 163.041 32.3173 163.382 31.912C163.745 31.5067 164.086 30.8987 164.406 30.088L170.806 13.224C170.977 12.7547 171.105 12.456 171.19 12.328C171.275 12.2 171.371 12.136 171.478 12.136C171.627 12.136 171.841 12.4773 172.118 13.16C172.161 13.2667 173.089 15.6027 174.902 20.168C176.715 24.7333 177.953 27.8053 178.614 29.384C179.339 31.1333 180.15 32.168 181.046 32.488C181.323 32.5947 181.686 32.648 182.134 32.648C182.39 32.648 182.518 32.7227 182.518 32.872C182.518 33.0213 182.358 33.096 182.038 33.096C180.225 33.096 178.603 33.0747 177.174 33.032C176.641 33.0107 176.374 32.936 176.374 32.808C176.374 32.7013 176.449 32.6267 176.598 32.584C176.833 32.4773 176.875 32.2427 176.726 31.88L174.198 25.448C174.134 25.3413 174.049 25.288 173.942 25.288ZM168.438 24.168H173.558C173.665 24.168 173.697 24.104 173.654 23.976L171.126 16.904C171.019 16.584 170.902 16.584 170.774 16.904L168.374 23.976C168.31 24.104 168.331 24.168 168.438 24.168ZM187.997 33.448C186.567 33.448 185.351 33.2133 184.349 32.744C184.071 32.616 183.933 32.3067 183.933 31.816C183.933 30.6427 183.975 29.7573 184.061 29.16C184.082 28.8827 184.146 28.744 184.253 28.744C184.359 28.744 184.413 28.8507 184.413 29.064C184.413 29.5547 184.445 29.9173 184.509 30.152C184.871 31.816 186.237 32.648 188.605 32.648C189.949 32.648 190.994 32.264 191.741 31.496C192.509 30.728 192.893 29.7893 192.893 28.68C192.893 27.6773 192.658 26.8347 192.189 26.152C191.741 25.448 190.855 24.584 189.533 23.56L188.221 22.536C186.898 21.5333 185.97 20.5947 185.437 19.72C184.903 18.824 184.637 17.896 184.637 16.936C184.637 15.5067 185.138 14.3547 186.141 13.48C187.143 12.584 188.509 12.136 190.237 12.136C191.069 12.136 191.933 12.2213 192.829 12.392C193.106 12.456 193.437 12.5093 193.821 12.552C193.97 12.552 194.045 12.5947 194.045 12.68C194.045 12.7013 194.034 12.8293 194.013 13.064C193.991 13.2773 193.97 13.608 193.949 14.056C193.927 14.4827 193.917 14.9627 193.917 15.496C193.917 15.8587 193.863 16.04 193.757 16.04C193.65 16.04 193.597 15.9333 193.597 15.72C193.554 15.0373 193.426 14.536 193.213 14.216C192.637 13.3413 191.463 12.904 189.693 12.904C188.583 12.904 187.698 13.2027 187.037 13.8C186.397 14.3973 186.077 15.24 186.077 16.328C186.077 17.1387 186.322 17.8853 186.813 18.568C187.303 19.2507 188.253 20.104 189.661 21.128L190.525 21.768C192.061 22.9413 193.095 23.9867 193.629 24.904C194.183 25.8213 194.461 26.824 194.461 27.912C194.461 29.7467 193.682 31.2187 192.125 32.328C191.037 33.0747 189.661 33.448 187.997 33.448Z" fill="#536073"/>
</svg>
