<svg width="200" height="50" viewBox="0 0 200 50" fill="none" xmlns="http://www.w3.org/2000/svg">
<path d="M6.31592 15.7848C6.31592 18.8672 6.31592 21.4038 6.15538 22.7524C6.02694 23.6835 5.89851 24.422 5.25633 24.5505C4.96735 24.6147 4.74259 24.6468 4.48572 24.6468C4.0683 24.6468 4.00409 24.7752 4.00409 24.8716C4.00409 25.0321 4.16463 25.0963 4.51783 25.0963C5.64164 25.0963 6.63701 25 7.66449 25C7.79293 25 8.69198 25.0321 9.62313 25.0963C10.5543 25.1284 11.5818 25.1927 11.935 25.1927C17.4256 25.1927 20.1227 21.6286 20.1227 18.1929C20.1227 14.4362 16.9439 12.1565 14.5679 11.418C16.077 9.84462 17.5861 8.27129 17.5861 5.63837C17.5861 4.03292 16.4302 0.822039 11.1644 0.822039C9.68735 0.822039 8.43511 0.918365 7.66449 0.918365C7.50395 0.918365 5.48109 0.822039 4.03619 0.822039C3.683 0.822039 3.52245 0.886256 3.52245 1.07891C3.52245 1.20734 3.65089 1.27156 3.93987 1.27156C4.0683 1.27156 4.61415 1.30367 4.87102 1.36789C5.93062 1.59265 6.18749 2.10639 6.2517 3.19809C6.31592 4.22558 6.31592 5.12462 6.31592 10.1336V15.7848ZM8.88463 2.23483C8.88463 2.04217 8.98096 1.94585 9.26994 1.88163C9.78368 1.7532 10.458 1.72109 10.8112 1.72109C13.9578 1.72109 15.1459 4.57877 15.1459 7.24381C15.1459 8.56027 14.6642 9.71619 13.9899 10.4868C13.3157 11.2574 12.8661 11.3216 11.068 11.3216C9.88 11.3216 9.30205 11.2253 9.10939 11.1932C8.94885 11.129 8.88463 11.0648 8.88463 10.84V2.23483ZM8.88463 12.4133C8.88463 12.2528 8.94885 12.1886 9.07728 12.1886C9.55892 12.1886 11.1644 12.1886 11.5818 12.2528C12.3524 12.3491 13.1551 12.4454 14.2468 13.1839C16.7192 14.8857 17.3614 17.6792 17.3614 19.6057C17.3614 23.234 14.5679 24.1652 12.834 24.1652C12.2561 24.1652 10.8754 24.101 10.0084 23.6835C9.01307 23.2019 9.01307 22.7524 8.91674 21.179C8.88463 20.6974 8.88463 16.7159 8.88463 14.2435V12.4133ZM27.1819 17.1654C27.1819 19.6057 27.1498 20.9222 27.1177 22.0139C27.0535 24.0046 26.6682 24.422 26.0902 24.5505C25.8654 24.6147 25.6407 24.6468 25.448 24.6468C25.2875 24.6468 25.159 24.7431 25.159 24.8716C25.159 25.0321 25.3196 25.0963 25.6086 25.0963C26.3792 25.0963 26.9893 25 27.7278 25C28.9158 25 30.3928 25.0642 31.5166 25.0963C32.6404 25.0963 33.5395 25.1605 35.6586 25.1605C36.7182 25.1605 36.943 25.0963 37.0714 24.4541C37.1678 23.9083 37.4246 21.8854 37.4246 21.6607C37.4246 21.468 37.4246 21.179 37.232 21.179C37.1035 21.179 37.0072 21.3075 36.943 21.6286C36.6861 22.8166 36.4614 23.4588 35.4981 23.7478C34.6954 23.9725 33.6679 23.9404 33.0578 23.9404C31.9661 23.9404 31.1955 23.8762 30.7139 23.6514C30.0396 23.3624 29.879 22.7524 29.8148 21.5644C29.7827 21.0185 29.8148 18.1929 29.8148 17.1976V14.8536C29.8148 14.7252 29.8469 14.6288 30.0396 14.6288C30.5533 14.6288 33.1542 14.6931 33.8927 14.7573C35.1128 14.8536 35.3054 15.3031 35.4339 15.7205C35.4981 15.9774 35.5302 16.2985 35.5302 16.4912C35.5302 16.7159 35.5623 16.9086 35.7229 16.9086C35.8513 16.9086 35.9155 16.8122 35.9476 16.5554C35.9797 16.138 35.9797 15.4958 36.0761 14.5967C36.1724 13.6656 36.3008 13.0555 36.3008 12.895C36.3008 12.7344 36.2366 12.7023 36.1724 12.7023C36.0439 12.7023 35.9476 12.7665 35.8192 12.9592C35.5623 13.3124 35.0807 13.4087 34.3422 13.4408C33.6679 13.505 30.3928 13.5371 30.0075 13.5371C29.8469 13.5371 29.8148 13.4087 29.8148 13.2161V5.92734C29.8148 5.73469 29.879 5.67047 29.9754 5.67047C30.0396 5.67047 33.2184 5.70258 33.6358 5.73469C35.2412 5.83102 35.5302 6.05578 35.7229 6.69796C35.8192 6.92272 35.9155 7.24381 35.9476 7.72544C35.9476 7.9502 36.0118 8.07864 36.1724 8.07864C36.3329 8.07864 36.3971 7.88598 36.3971 7.597C36.4293 6.98694 36.4614 6.4732 36.4935 5.92734C36.5577 5.12462 36.7503 4.6751 36.7503 4.48245C36.7503 4.3219 36.6861 4.25769 36.6219 4.25769C36.4935 4.25769 36.4614 4.28979 36.2687 4.35401C36.0118 4.45034 35.6586 4.48245 35.0165 4.51456C34.3743 4.54667 28.6589 4.54667 28.4984 4.54667C26.7003 4.51456 25.8333 4.45034 25.1912 4.45034C24.8701 4.45034 24.7095 4.51456 24.7095 4.70721C24.7095 4.80354 24.9022 4.89986 25.1269 4.89986C25.3838 4.89986 25.7049 4.93197 25.8976 4.96408C26.8287 5.15673 27.0535 5.60626 27.1177 6.5053C27.1819 7.37224 27.1819 8.14286 27.1819 12.3491V17.1654ZM50.8459 5.70258C51.777 5.70258 52.7724 5.73469 53.9925 5.73469C57.2355 5.7668 57.6529 6.08789 57.7814 7.37224C57.8135 7.69333 57.8135 7.72544 57.8135 7.82177C57.8135 8.07864 57.8777 8.20707 58.0383 8.20707C58.1346 8.20707 58.263 8.11075 58.263 7.82177C58.263 7.5649 58.3272 5.44571 58.3272 4.54667C58.3272 4.41823 58.263 4.25769 58.1346 4.25769C58.0383 4.25769 57.9419 4.28979 57.5245 4.38612C57.075 4.48245 56.1117 4.54667 55.2127 4.54667H44.681C44.6489 4.54667 43.7498 4.51456 42.626 4.38612C42.048 4.3219 41.438 4.03292 41.2132 4.03292C41.1169 4.03292 41.0206 4.16136 40.9242 4.54667C40.7316 5.4136 40.25 7.53279 40.2821 7.72544C40.2821 7.88598 40.3142 8.01442 40.4426 8.01442C40.571 8.01442 40.6353 7.98231 40.7316 7.75755C40.7958 7.597 40.9242 7.2117 41.2132 6.76218C41.6627 6.08789 42.1123 5.7668 44.1672 5.73469C45.4516 5.70258 47.1534 5.70258 48.2129 5.70258V17.1654C48.2129 19.5736 48.2129 21.8854 48.0845 23.0414C47.9561 24.1331 47.8597 24.5184 47.2497 24.6147C46.9928 24.6468 46.8002 24.6468 46.5433 24.6468C46.2864 24.6468 46.1901 24.7752 46.1901 24.8716C46.1901 25.0321 46.3185 25.0963 46.6717 25.0963C47.5066 25.0963 49.401 25 49.5294 25C49.6578 25 51.5523 25.0963 53.1898 25.0963C53.5109 25.0963 53.6072 25 53.6072 24.8395C53.6072 24.7431 53.4788 24.6468 53.2219 24.6468C52.9651 24.6468 52.355 24.6147 51.9697 24.5184C51.167 24.3257 51.1027 23.8762 51.0064 23.1056C50.878 21.9176 50.8459 19.6378 50.8459 17.1654V5.70258ZM66.9138 13.0555C66.8175 13.0555 66.7212 13.0555 66.7212 12.895V12.317C66.7212 8.07864 66.7212 7.37224 66.7533 6.5053C66.8175 5.60626 67.0102 5.06041 67.8129 4.93197C68.1661 4.86775 68.2624 4.86775 68.4551 4.86775C68.6477 4.86775 68.7762 4.80354 68.7762 4.6751C68.7762 4.51456 68.6156 4.45034 68.2945 4.45034C67.3955 4.45034 65.5332 4.54667 65.4047 4.54667C64.9873 4.54667 63.4461 4.45034 62.0654 4.45034C61.7443 4.45034 61.5838 4.48245 61.5838 4.6751C61.5838 4.77143 61.7122 4.86775 61.937 4.86775C62.1938 4.86775 62.5149 4.89986 62.8039 4.93197C63.7351 5.0283 63.9598 5.63837 64.024 6.4732C64.0883 7.34014 64.0883 8.17496 64.0883 12.4133V17.1654C64.0883 19.7984 64.1204 21.9497 63.9277 23.1056C63.8314 23.812 63.703 24.422 63.125 24.5505C62.8681 24.6147 62.6113 24.6468 62.3544 24.6468C62.0654 24.6468 62.0012 24.7752 62.0012 24.8716C62.0012 25.0321 62.1938 25.0963 62.5149 25.0963C63.3498 25.0963 65.3084 25 65.4047 25C65.5653 25 67.4597 25.0963 69.0972 25.0963C69.3862 25.0963 69.5147 25 69.5147 24.8716C69.5147 24.7431 69.3541 24.6468 69.1293 24.6468C68.8725 24.6468 68.3908 24.6147 67.9734 24.5505C67.1386 24.4541 66.9781 23.812 66.8817 23.1056C66.7212 21.9497 66.7212 19.8626 66.7212 17.2618V14.4041C66.7212 14.2435 66.7854 14.2114 66.8817 14.2114H78.5372C78.6336 14.2114 78.7299 14.2756 78.7299 14.4041V17.2618C78.7299 19.8626 78.7299 21.8854 78.5693 23.0414C78.473 23.7799 78.3125 24.4863 77.7666 24.5826C77.5098 24.6468 77.285 24.6468 77.0281 24.6468C76.7713 24.6468 76.6749 24.7431 76.6749 24.8395C76.6749 25.0321 76.8355 25.0963 77.1566 25.0963C78.0235 25.0963 79.8858 25 80.0142 25C80.1748 25 82.0371 25.0963 83.6425 25.0963C83.9636 25.0963 84.1242 25.0321 84.1242 24.8716C84.1242 24.7431 83.9636 24.6468 83.7068 24.6468C83.4178 24.6468 83.0004 24.6147 82.583 24.5505C81.7481 24.4541 81.5876 23.812 81.4913 23.0414C81.3628 21.8854 81.3628 19.7984 81.3628 17.1654V12.3491C81.3628 8.11075 81.3628 7.37224 81.3949 6.5053C81.4591 5.60626 81.5876 5.09252 82.4545 4.96408C82.6472 4.93197 82.904 4.89986 83.0967 4.89986C83.3536 4.89986 83.4499 4.77143 83.4499 4.6751C83.4499 4.48245 83.2572 4.45034 82.9362 4.45034C81.9729 4.45034 80.1748 4.54667 80.0464 4.54667C79.9179 4.54667 78.0235 4.45034 76.6749 4.45034C76.3859 4.45034 76.2254 4.48245 76.2254 4.6751C76.2254 4.80354 76.3859 4.89986 76.6107 4.89986C76.8676 4.89986 77.1887 4.93197 77.4134 4.96408C78.473 5.15673 78.6015 5.60626 78.6657 6.4732C78.7299 7.34014 78.7299 8.07864 78.7299 12.317V12.895C78.7299 13.0555 78.6336 13.0555 78.5372 13.0555H66.9138ZM105.12 10.1336C105.12 5.12462 105.12 4.22558 105.184 3.19809C105.249 2.07428 105.505 1.52843 106.437 1.36789C106.822 1.30367 107.271 1.27156 107.496 1.27156C107.625 1.27156 107.753 1.20734 107.753 1.07891C107.753 0.886256 107.592 0.822039 107.239 0.822039C106.276 0.822039 103.932 0.918365 103.772 0.918365C103.611 0.918365 101.588 0.822039 100.143 0.822039C99.79 0.822039 99.6295 0.886256 99.6295 1.07891C99.6295 1.20734 99.7579 1.27156 99.8864 1.27156C100.175 1.27156 100.721 1.30367 100.978 1.36789C102.038 1.59265 102.295 2.10639 102.359 3.19809C102.423 4.22558 102.423 5.12462 102.423 10.1336V15.7848C102.423 18.8672 102.423 21.4038 102.262 22.7524C102.134 23.6835 101.973 24.3899 101.331 24.5184C101.042 24.5826 100.657 24.6468 100.368 24.6468C100.175 24.6468 100.111 24.7431 100.111 24.8395C100.111 25.0321 100.272 25.0963 100.625 25.0963C101.813 25.0963 102.776 25 103.772 25C106.886 25 109.615 25.1927 112.377 25.1927C114.078 25.1927 114.175 25.0642 114.4 24.3257C114.656 23.3946 114.881 21.468 114.881 21.1148C114.881 20.7616 114.849 20.6332 114.689 20.6332C114.496 20.6332 114.432 20.7937 114.4 21.0506C114.303 21.6607 113.982 22.4634 113.565 22.9771C112.794 23.9083 111.381 23.9404 109.68 23.9404C107.175 23.9404 106.34 23.7156 105.827 23.2019C105.249 22.6239 105.12 20.569 105.12 15.849V10.1336ZM121.432 12.3491C121.432 8.11075 121.432 7.37224 121.464 6.5053C121.528 5.60626 121.656 5.06041 122.427 4.96408C122.684 4.93197 122.941 4.89986 123.133 4.89986C123.294 4.89986 123.519 4.83564 123.519 4.6751C123.519 4.51456 123.422 4.45034 123.069 4.45034C122.202 4.45034 120.308 4.54667 120.051 4.54667C119.826 4.54667 118.092 4.45034 116.712 4.45034C116.358 4.45034 116.23 4.51456 116.23 4.70721C116.23 4.80354 116.358 4.89986 116.583 4.89986C116.84 4.89986 117.225 4.93197 117.418 4.96408C118.413 5.09252 118.574 5.63837 118.606 6.5053C118.702 7.37224 118.702 8.11075 118.702 12.3491V16.3306C118.702 20.3121 119.698 22.2386 121.078 23.523C123.166 25.4495 126.184 25.4495 127.083 25.4495C128.817 25.4495 130.872 25.289 132.959 23.523C135.238 21.5644 135.56 18.0966 135.56 15.2068V12.3491C135.56 8.14286 135.56 7.40435 135.592 6.53741C135.656 5.60626 135.784 5.0283 136.683 4.93197C137.004 4.89986 137.069 4.89986 137.261 4.89986C137.454 4.89986 137.582 4.80354 137.582 4.6751C137.582 4.51456 137.454 4.45034 137.133 4.45034C136.234 4.45034 134.853 4.54667 134.693 4.54667C134.564 4.54667 132.959 4.45034 131.578 4.45034C131.289 4.45034 131.129 4.51456 131.129 4.70721C131.129 4.80354 131.257 4.89986 131.45 4.89986C131.739 4.89986 132.124 4.93197 132.349 4.96408C133.376 5.12462 133.472 5.60626 133.537 6.53741C133.601 7.40435 133.601 8.14286 133.601 12.3491V15.7527C133.601 18.5461 133.312 20.9864 132.028 22.4634C130.807 23.8762 129.298 24.3257 127.629 24.3257C126.312 24.3257 124.771 24.0688 123.39 22.8487C122.17 21.757 121.432 20.0873 121.432 16.1701V12.3491ZM153.366 25.4495C155.164 25.4495 157.315 25.289 158.439 24.8073C158.889 24.6147 158.985 24.5184 159.178 24.0046C159.402 23.2982 159.82 20.6974 159.82 20.4405C159.82 20.2158 159.82 19.991 159.659 19.991C159.467 19.991 159.37 20.1516 159.306 20.4727C159.145 21.3717 158.824 22.1744 158.246 22.7845C157.123 23.8762 155.517 24.101 153.334 24.101C147.683 24.101 143.348 19.4131 143.348 14.083C143.348 11.2574 143.83 8.94558 145.917 7.05116C146.88 6.18422 148.517 5.18884 152.082 5.18884C154.554 5.18884 156.802 5.99156 157.765 6.82639C158.568 7.43646 159.017 8.68871 159.017 9.61986C159.017 10.0373 159.049 10.2299 159.274 10.2299C159.434 10.2299 159.499 10.0694 159.531 9.61986C159.563 9.23456 159.563 7.5649 159.595 6.66585C159.659 5.63837 159.756 5.34939 159.756 5.09252C159.756 4.93197 159.723 4.77143 159.467 4.77143C158.696 4.73932 157.668 4.57877 156.641 4.41823C155.068 4.19347 153.88 4.06503 152.403 4.06503C148.1 4.06503 145.499 5.25306 143.765 6.92272C141.229 9.36299 140.522 12.5418 140.522 14.3399C140.522 17.0049 141.229 20.1516 143.958 22.5276C146.238 24.4863 149.128 25.4495 153.366 25.4495ZM175.134 17.2618C175.263 17.2618 175.327 17.326 175.391 17.4223L177.928 23.8762C178.12 24.3578 177.928 24.5184 177.799 24.5826C177.671 24.6147 177.574 24.711 177.574 24.8073C177.574 24.9679 177.767 25 178.377 25.0321C180.528 25.0963 182.937 25.0963 183.258 25.0963C183.611 25.0963 183.739 25.0321 183.739 24.8716C183.739 24.711 183.579 24.6468 183.354 24.6468C183.129 24.6468 182.68 24.6468 182.262 24.4863C181.813 24.3257 180.882 23.9083 179.822 21.3717C178.12 17.3581 173.754 6.15211 173.304 5.09252C172.951 4.19347 172.822 4.06503 172.662 4.06503C172.437 4.06503 172.341 4.22558 171.988 5.15673L165.566 22.0781C165.02 23.4267 164.474 24.4863 163.093 24.6147C162.901 24.6468 162.612 24.6468 162.451 24.6468C162.194 24.6468 162.066 24.7431 162.066 24.8716C162.066 25.0321 162.226 25.0963 162.58 25.0963C163.928 25.0963 165.341 25 165.662 25C166.015 25 167.492 25.0963 168.199 25.0963C168.423 25.0963 168.68 25.0321 168.68 24.8716C168.68 24.7431 168.584 24.6468 168.295 24.6468C168.199 24.6468 168.167 24.6468 168.07 24.6468C167.364 24.6468 167.011 24.3899 167.011 23.812C167.011 23.2982 167.235 22.4313 167.557 21.5322L168.969 17.5186C169.034 17.3581 169.13 17.2618 169.29 17.2618H175.134ZM169.611 16.138C169.547 16.138 169.483 16.0737 169.547 15.9453L171.955 8.84925C172.116 8.39973 172.148 8.39973 172.309 8.84925L174.845 15.9453C174.877 16.0416 174.877 16.138 174.749 16.138H169.611ZM190.161 25.4495C191.702 25.4495 193.244 25.1284 194.496 24.3257C196.454 22.9771 196.936 20.9222 196.936 19.7663C196.936 17.4865 196.069 15.7848 192.73 13.2161L191.991 12.6381C189.326 10.6152 188.556 9.68408 188.556 8.17496C188.556 6.24843 190.001 5.09252 191.927 5.09252C194.624 5.09252 195.363 6.31265 195.523 6.60163C195.812 7.14748 195.877 7.82177 195.909 8.11075C195.941 8.33551 195.973 8.46394 196.133 8.46394C196.294 8.46394 196.358 8.27129 196.358 7.78966C196.358 5.92734 196.487 4.80354 196.487 4.6751C196.487 4.54667 196.422 4.48245 196.198 4.48245C195.973 4.48245 195.716 4.45034 195.106 4.3219C194.399 4.16136 193.629 4.06503 192.505 4.06503C188.909 4.06503 186.565 6.05578 186.565 9.00979C186.565 10.9042 187.207 12.606 190.29 15.0784L191.574 16.0737C193.918 17.9682 194.753 19.092 194.753 20.9222C194.753 22.5276 193.468 24.3578 190.803 24.3578C188.941 24.3578 187.047 23.5551 186.629 21.468C186.533 21.0827 186.533 20.6974 186.533 20.5048C186.533 20.28 186.469 20.1837 186.308 20.1837C186.148 20.1837 186.083 20.3442 186.051 20.6332C186.019 21.0827 185.923 22.1744 185.923 23.6514C185.923 24.422 185.923 24.5505 186.34 24.7431C187.56 25.289 188.813 25.4495 190.161 25.4495Z" fill="white"/>
<path d="M6.67132 41.2073V44H5.73064V36.8664H8.36163C9.14227 36.8664 9.75306 37.0657 10.194 37.4642C10.6382 37.8627 10.8603 38.3902 10.8603 39.0467C10.8603 39.7391 10.6431 40.2732 10.2087 40.6488C9.77756 41.0212 9.1586 41.2073 8.35183 41.2073H6.67132ZM6.67132 40.4381H8.36163C8.86463 40.4381 9.25005 40.3205 9.51789 40.0854C9.78572 39.8469 9.91964 39.504 9.91964 39.0565C9.91964 38.6319 9.78572 38.2922 9.51789 38.0374C9.25005 37.7826 8.8826 37.6504 8.41552 37.6406H6.67132V40.4381ZM16.1821 41.1142H14.5065V44H13.5609V36.8664H15.9224C16.7259 36.8664 17.3432 37.0494 17.7744 37.4152C18.2088 37.781 18.426 38.3134 18.426 39.0124C18.426 39.4566 18.3052 39.8437 18.0635 40.1736C17.825 40.5034 17.4919 40.7501 17.064 40.9134L18.7396 43.9412V44H17.7303L16.1821 41.1142ZM14.5065 40.345H15.9518C16.4189 40.345 16.7896 40.2242 17.064 39.9825C17.3416 39.7408 17.4804 39.4174 17.4804 39.0124C17.4804 38.5714 17.3481 38.2334 17.0836 37.9982C16.8223 37.763 16.4434 37.6438 15.9469 37.6406H14.5065V40.345ZM26.7413 40.6635C26.7413 41.3625 26.6237 41.9733 26.3886 42.4959C26.1534 43.0152 25.8202 43.4121 25.3891 43.6864C24.9579 43.9608 24.4549 44.098 23.8801 44.098C23.3183 44.098 22.8201 43.9608 22.3857 43.6864C21.9513 43.4088 21.6133 43.0152 21.3715 42.5057C21.1331 41.9929 21.0106 41.4 21.0041 40.7272V40.2127C21.0041 39.5268 21.1233 38.9209 21.3617 38.3951C21.6002 37.8692 21.9366 37.4674 22.371 37.1898C22.8087 36.9089 23.3085 36.7685 23.8703 36.7685C24.4419 36.7685 24.9449 36.9073 25.3793 37.1849C25.817 37.4593 26.1534 37.8594 26.3886 38.3853C26.6237 38.9079 26.7413 39.517 26.7413 40.2127V40.6635ZM25.8055 40.2029C25.8055 39.357 25.6357 38.7086 25.296 38.2579C24.9563 37.8039 24.481 37.5769 23.8703 37.5769C23.2758 37.5769 22.8071 37.8039 22.4641 38.2579C22.1244 38.7086 21.9497 39.3358 21.9399 40.1393V40.6635C21.9399 41.4833 22.1114 42.1284 22.4543 42.5988C22.8005 43.0658 23.2758 43.2994 23.8801 43.2994C24.4876 43.2994 24.9579 43.0789 25.2911 42.638C25.6242 42.1937 25.7957 41.5585 25.8055 40.7321V40.2029ZM33.5917 40.8497H30.5981V44H29.6574V36.8664H34.0767V37.6406H30.5981V40.0805H33.5917V40.8497ZM40.7409 40.7027H37.6494V43.2308H41.2407V44H36.7087V36.8664H41.1917V37.6406H37.6494V39.9335H40.7409V40.7027ZM46.0186 40.8203C45.2118 40.5884 44.6239 40.3042 44.2548 39.9678C43.889 39.6281 43.706 39.21 43.706 38.7135C43.706 38.1517 43.9298 37.6879 44.3773 37.3221C44.828 36.953 45.4127 36.7685 46.1313 36.7685C46.6212 36.7685 47.0573 36.8632 47.4394 37.0526C47.8248 37.2421 48.1221 37.5034 48.3311 37.8365C48.5434 38.1697 48.6496 38.5339 48.6496 38.9291H47.704C47.704 38.4979 47.5668 38.1599 47.2924 37.9149C47.0181 37.6667 46.631 37.5426 46.1313 37.5426C45.6675 37.5426 45.3049 37.6455 45.0436 37.8512C44.7856 38.0537 44.6565 38.3363 44.6565 38.6988C44.6565 38.9895 44.779 39.2361 45.024 39.4386C45.2722 39.6379 45.6919 39.8208 46.2831 39.9874C46.8776 40.154 47.3414 40.3385 47.6746 40.541C48.011 40.7403 48.2592 40.9738 48.4193 41.2416C48.5826 41.5095 48.6643 41.8247 48.6643 42.1872C48.6643 42.7653 48.4389 43.2292 47.9881 43.5786C47.5374 43.9249 46.9348 44.098 46.1803 44.098C45.6903 44.098 45.233 44.0049 44.8084 43.8187C44.3838 43.6293 44.0555 43.3712 43.8236 43.0446C43.595 42.718 43.4807 42.3473 43.4807 41.9324H44.4263C44.4263 42.3636 44.5847 42.7049 44.9015 42.9564C45.2216 43.2047 45.6479 43.3288 46.1803 43.3288C46.6767 43.3288 47.0573 43.2275 47.3218 43.025C47.5864 42.8225 47.7187 42.5465 47.7187 42.197C47.7187 41.8475 47.5962 41.5781 47.3512 41.3886C47.1062 41.1959 46.662 41.0065 46.0186 40.8203ZM53.4814 40.8203C52.6746 40.5884 52.0867 40.3042 51.7176 39.9678C51.3518 39.6281 51.1688 39.21 51.1688 38.7135C51.1688 38.1517 51.3926 37.6879 51.8401 37.3221C52.2908 36.953 52.8755 36.7685 53.5941 36.7685C54.084 36.7685 54.5201 36.8632 54.9022 37.0526C55.2876 37.2421 55.5849 37.5034 55.7939 37.8365C56.0062 38.1697 56.1124 38.5339 56.1124 38.9291H55.1668C55.1668 38.4979 55.0296 38.1599 54.7552 37.9149C54.4809 37.6667 54.0938 37.5426 53.5941 37.5426C53.1303 37.5426 52.7677 37.6455 52.5064 37.8512C52.2484 38.0537 52.1193 38.3363 52.1193 38.6988C52.1193 38.9895 52.2418 39.2361 52.4868 39.4386C52.735 39.6379 53.1547 39.8208 53.7459 39.9874C54.3404 40.154 54.8042 40.3385 55.1374 40.541C55.4738 40.7403 55.722 40.9738 55.8821 41.2416C56.0454 41.5095 56.1271 41.8247 56.1271 42.1872C56.1271 42.7653 55.9017 43.2292 55.4509 43.5786C55.0002 43.9249 54.3976 44.098 53.6431 44.098C53.1531 44.098 52.6958 44.0049 52.2712 43.8187C51.8466 43.6293 51.5183 43.3712 51.2864 43.0446C51.0578 42.718 50.9435 42.3473 50.9435 41.9324H51.8891C51.8891 42.3636 52.0475 42.7049 52.3643 42.9564C52.6844 43.2047 53.1107 43.3288 53.6431 43.3288C54.1395 43.3288 54.5201 43.2275 54.7846 43.025C55.0492 42.8225 55.1815 42.5465 55.1815 42.197C55.1815 41.8475 55.059 41.5781 54.814 41.3886C54.569 41.1959 54.1248 41.0065 53.4814 40.8203ZM59.8516 44H58.9109V36.8664H59.8516V44ZM68.5687 40.6635C68.5687 41.3625 68.4511 41.9733 68.2159 42.4959C67.9807 43.0152 67.6476 43.4121 67.2164 43.6864C66.7853 43.9608 66.2823 44.098 65.7074 44.098C65.1456 44.098 64.6475 43.9608 64.2131 43.6864C63.7787 43.4088 63.4406 43.0152 63.1989 42.5057C62.9604 41.9929 62.838 41.4 62.8314 40.7272V40.2127C62.8314 39.5268 62.9507 38.9209 63.1891 38.3951C63.4275 37.8692 63.764 37.4674 64.1984 37.1898C64.6361 36.9089 65.1358 36.7685 65.6976 36.7685C66.2692 36.7685 66.7722 36.9073 67.2066 37.1849C67.6443 37.4593 67.9807 37.8594 68.2159 38.3853C68.4511 38.9079 68.5687 39.517 68.5687 40.2127V40.6635ZM67.6329 40.2029C67.6329 39.357 67.463 38.7086 67.1233 38.2579C66.7836 37.8039 66.3084 37.5769 65.6976 37.5769C65.1031 37.5769 64.6344 37.8039 64.2915 38.2579C63.9518 38.7086 63.777 39.3358 63.7672 40.1393V40.6635C63.7672 41.4833 63.9387 42.1284 64.2817 42.5988C64.6279 43.0658 65.1031 43.2994 65.7074 43.2994C66.3149 43.2994 66.7853 43.0789 67.1184 42.638C67.4516 42.1937 67.6231 41.5585 67.6329 40.7321V40.2029ZM76.9672 44H76.0217L72.4304 38.5028V44H71.4848V36.8664H72.4304L76.0314 42.3881V36.8664H76.9672V44ZM84.1704 42.1382H81.1817L80.5105 44H79.5404L82.2645 36.8664H83.0876L85.8166 44H84.8514L84.1704 42.1382ZM81.4659 41.3641H83.8911L82.676 38.0276L81.4659 41.3641ZM89.2276 43.2308H92.6082V44H88.282V36.8664H89.2276V43.2308ZM104.428 41.7365C104.339 42.491 104.06 43.074 103.59 43.4856C103.123 43.8938 102.5 44.098 101.723 44.098C100.88 44.098 100.204 43.7959 99.6947 43.1916C99.1884 42.5873 98.9353 41.7789 98.9353 40.7664V40.0805C98.9353 39.4174 99.0529 38.8344 99.288 38.3314C99.5265 37.8284 99.8629 37.4429 100.297 37.1751C100.732 36.904 101.235 36.7685 101.806 36.7685C102.564 36.7685 103.172 36.9808 103.629 37.4054C104.086 37.8267 104.352 38.4114 104.428 39.1594H103.482C103.4 38.591 103.222 38.1795 102.948 37.9247C102.677 37.6699 102.296 37.5426 101.806 37.5426C101.205 37.5426 100.733 37.7647 100.39 38.2089C100.051 38.6531 99.8809 39.2851 99.8809 40.105V40.7958C99.8809 41.5699 100.043 42.1856 100.366 42.6429C100.689 43.1001 101.142 43.3288 101.723 43.3288C102.246 43.3288 102.646 43.2112 102.923 42.976C103.204 42.7376 103.39 42.3244 103.482 41.7365H104.428ZM112.709 40.6635C112.709 41.3625 112.591 41.9733 112.356 42.4959C112.121 43.0152 111.787 43.4121 111.356 43.6864C110.925 43.9608 110.422 44.098 109.847 44.098C109.285 44.098 108.787 43.9608 108.353 43.6864C107.919 43.4088 107.58 43.0152 107.339 42.5057C107.1 41.9929 106.978 41.4 106.971 40.7272V40.2127C106.971 39.5268 107.091 38.9209 107.329 38.3951C107.567 37.8692 107.904 37.4674 108.338 37.1898C108.776 36.9089 109.276 36.7685 109.837 36.7685C110.409 36.7685 110.912 36.9073 111.346 37.1849C111.784 37.4593 112.121 37.8594 112.356 38.3853C112.591 38.9079 112.709 39.517 112.709 40.2127V40.6635ZM111.773 40.2029C111.773 39.357 111.603 38.7086 111.263 38.2579C110.923 37.8039 110.448 37.5769 109.837 37.5769C109.243 37.5769 108.774 37.8039 108.431 38.2579C108.092 38.7086 107.917 39.3358 107.907 40.1393V40.6635C107.907 41.4833 108.079 42.1284 108.422 42.5988C108.768 43.0658 109.243 43.2994 109.847 43.2994C110.455 43.2994 110.925 43.0789 111.258 42.638C111.591 42.1937 111.763 41.5585 111.773 40.7321V40.2029ZM117.727 40.8203C116.92 40.5884 116.332 40.3042 115.963 39.9678C115.597 39.6281 115.414 39.21 115.414 38.7135C115.414 38.1517 115.638 37.6879 116.085 37.3221C116.536 36.953 117.121 36.7685 117.839 36.7685C118.329 36.7685 118.765 36.8632 119.147 37.0526C119.533 37.2421 119.83 37.5034 120.039 37.8365C120.251 38.1697 120.357 38.5339 120.357 38.9291H119.412C119.412 38.4979 119.275 38.1599 119 37.9149C118.726 37.6667 118.339 37.5426 117.839 37.5426C117.375 37.5426 117.013 37.6455 116.752 37.8512C116.493 38.0537 116.364 38.3363 116.364 38.6988C116.364 38.9895 116.487 39.2361 116.732 39.4386C116.98 39.6379 117.4 39.8208 117.991 39.9874C118.586 40.154 119.049 40.3385 119.383 40.541C119.719 40.7403 119.967 40.9738 120.127 41.2416C120.291 41.5095 120.372 41.8247 120.372 42.1872C120.372 42.7653 120.147 43.2292 119.696 43.5786C119.245 43.9249 118.643 44.098 117.888 44.098C117.398 44.098 116.941 44.0049 116.516 43.8187C116.092 43.6293 115.763 43.3712 115.532 43.0446C115.303 42.718 115.189 42.3473 115.189 41.9324H116.134C116.134 42.3636 116.293 42.7049 116.609 42.9564C116.93 43.2047 117.356 43.3288 117.888 43.3288C118.385 43.3288 118.765 43.2275 119.03 43.025C119.294 42.8225 119.427 42.5465 119.427 42.197C119.427 41.8475 119.304 41.5781 119.059 41.3886C118.814 41.1959 118.37 41.0065 117.727 40.8203ZM124.303 36.8664L126.635 42.687L128.967 36.8664H130.187V44H129.246V41.222L129.334 38.2236L126.992 44H126.272L123.935 38.2383L124.028 41.222V44H123.087V36.8664H124.303ZM137.385 40.7027H134.293V43.2308H137.885V44H133.353V36.8664H137.836V37.6406H134.293V39.9335H137.385V40.7027ZM145.588 37.6406H143.295V44H142.359V37.6406H140.071V36.8664H145.588V37.6406ZM153.501 40.6635C153.501 41.3625 153.384 41.9733 153.148 42.4959C152.913 43.0152 152.58 43.4121 152.149 43.6864C151.718 43.9608 151.215 44.098 150.64 44.098C150.078 44.098 149.58 43.9608 149.146 43.6864C148.711 43.4088 148.373 43.0152 148.131 42.5057C147.893 41.9929 147.77 41.4 147.764 40.7272V40.2127C147.764 39.5268 147.883 38.9209 148.122 38.3951C148.36 37.8692 148.696 37.4674 149.131 37.1898C149.568 36.9089 150.068 36.7685 150.63 36.7685C151.202 36.7685 151.705 36.9073 152.139 37.1849C152.577 37.4593 152.913 37.8594 153.148 38.3853C153.384 38.9079 153.501 39.517 153.501 40.2127V40.6635ZM152.565 40.2029C152.565 39.357 152.395 38.7086 152.056 38.2579C151.716 37.8039 151.241 37.5769 150.63 37.5769C150.036 37.5769 149.567 37.8039 149.224 38.2579C148.884 38.7086 148.709 39.3358 148.7 40.1393V40.6635C148.7 41.4833 148.871 42.1284 149.214 42.5988C149.56 43.0658 150.036 43.2994 150.64 43.2994C151.247 43.2994 151.718 43.0789 152.051 42.638C152.384 42.1937 152.556 41.5585 152.565 40.7321V40.2029ZM157.363 43.2308H160.743V44H156.417V36.8664H157.363V43.2308ZM168.485 40.6635C168.485 41.3625 168.368 41.9733 168.133 42.4959C167.898 43.0152 167.564 43.4121 167.133 43.6864C166.702 43.9608 166.199 44.098 165.624 44.098C165.062 44.098 164.564 43.9608 164.13 43.6864C163.695 43.4088 163.357 43.0152 163.116 42.5057C162.877 41.9929 162.755 41.4 162.748 40.7272V40.2127C162.748 39.5268 162.867 38.9209 163.106 38.3951C163.344 37.8692 163.681 37.4674 164.115 37.1898C164.553 36.9089 165.053 36.7685 165.614 36.7685C166.186 36.7685 166.689 36.9073 167.123 37.1849C167.561 37.4593 167.898 37.8594 168.133 38.3853C168.368 38.9079 168.485 39.517 168.485 40.2127V40.6635ZM167.55 40.2029C167.55 39.357 167.38 38.7086 167.04 38.2579C166.7 37.8039 166.225 37.5769 165.614 37.5769C165.02 37.5769 164.551 37.8039 164.208 38.2579C163.869 38.7086 163.694 39.3358 163.684 40.1393V40.6635C163.684 41.4833 163.856 42.1284 164.198 42.5988C164.545 43.0658 165.02 43.2994 165.624 43.2994C166.232 43.2994 166.702 43.0789 167.035 42.638C167.368 42.1937 167.54 41.5585 167.55 40.7321V40.2029ZM176.669 43.0642C176.427 43.4104 176.089 43.6701 175.654 43.8432C175.223 44.0131 174.72 44.098 174.145 44.098C173.564 44.098 173.048 43.9624 172.597 43.6913C172.146 43.417 171.797 43.0283 171.549 42.5253C171.304 42.0223 171.178 41.4392 171.171 40.7762V40.154C171.171 39.0793 171.421 38.2464 171.921 37.6552C172.424 37.0641 173.129 36.7685 174.038 36.7685C174.782 36.7685 175.382 36.9595 175.836 37.3417C176.29 37.7206 176.567 38.2595 176.669 38.9585H175.728C175.551 38.0145 174.99 37.5426 174.042 37.5426C173.412 37.5426 172.934 37.7647 172.607 38.2089C172.284 38.6498 172.12 39.29 172.117 40.1295V40.7125C172.117 41.5127 172.3 42.1497 172.666 42.6233C173.031 43.0936 173.526 43.3288 174.15 43.3288C174.503 43.3288 174.812 43.2896 175.076 43.2112C175.341 43.1328 175.56 43.0005 175.733 42.8143V41.2122H174.082V40.4479H176.669V43.0642ZM180.756 44H179.815V36.8664H180.756V44ZM186.087 40.8203C185.28 40.5884 184.692 40.3042 184.323 39.9678C183.958 39.6281 183.775 39.21 183.775 38.7135C183.775 38.1517 183.998 37.6879 184.446 37.3221C184.897 36.953 185.481 36.7685 186.2 36.7685C186.69 36.7685 187.126 36.8632 187.508 37.0526C187.893 37.2421 188.191 37.5034 188.4 37.8365C188.612 38.1697 188.718 38.5339 188.718 38.9291H187.773C187.773 38.4979 187.635 38.1599 187.361 37.9149C187.087 37.6667 186.7 37.5426 186.2 37.5426C185.736 37.5426 185.373 37.6455 185.112 37.8512C184.854 38.0537 184.725 38.3363 184.725 38.6988C184.725 38.9895 184.848 39.2361 185.093 39.4386C185.341 39.6379 185.761 39.8208 186.352 39.9874C186.946 40.154 187.41 40.3385 187.743 40.541C188.08 40.7403 188.328 40.9738 188.488 41.2416C188.651 41.5095 188.733 41.8247 188.733 42.1872C188.733 42.7653 188.507 43.2292 188.057 43.5786C187.606 43.9249 187.003 44.098 186.249 44.098C185.759 44.098 185.302 44.0049 184.877 43.8187C184.452 43.6293 184.124 43.3712 183.892 43.0446C183.664 42.718 183.549 42.3473 183.549 41.9324H184.495C184.495 42.3636 184.653 42.7049 184.97 42.9564C185.29 43.2047 185.716 43.3288 186.249 43.3288C186.745 43.3288 187.126 43.2275 187.39 43.025C187.655 42.8225 187.787 42.5465 187.787 42.197C187.787 41.8475 187.665 41.5781 187.42 41.3886C187.175 41.1959 186.731 41.0065 186.087 40.8203ZM196.377 37.6406H194.084V44H193.148V37.6406H190.86V36.8664H196.377V37.6406Z" fill="#C7C7C7"/>
</svg>
